# xmcd CD database file
#
# Track frame offsets:
#	151
#	19193
#	42181
#	67246
#	85851
#	107790
#	121732
#	142061
#	158184
#	178162
#
# Disc length: 2587 seconds
#
# Revision: 2
# Processed by: cddbd v1.5.2PL0 Copyright (c) Steve Scherf et al.
# Submitted via: CDex 1.70beta2
#
DISCID=8a0a190a
DTITLE=Various Artist - Super Éxitos De Salsa CD1
DYEAR=2007
DGENRE=Salsa
TTITLE0=Yo La Agarro Bajando - Juan Manuel
TTITLE1=Contigo - Addrúbal
TTITLE2=Cañaguate - Henry Garcia
TTITLE3=Tengo Swing - Luis Miguel Del Amargue
TTITLE4=Nunca Notaste Tu - Carlos Silver
TTITLE5=Boracaniguara - Juan Manuel
TTITLE6=Dígale - Swing Divino
TTITLE7=De Qué Tamaño - Rocky Romero
TTITLE8=Si Quieres Te Quiero - Addrúbal
TTITLE9=Si Te Lloro - Carlos Silver
EXTD=YEAR: 2007
EXTT0=
EXTT1=
EXTT2=
EXTT3=
EXTT4=
EXTT5=
EXTT6=
EXTT7=
EXTT8=
EXTT9=
PLAYORDER=
